<?xml version="1.0" standalone="no"?>
<!DOCTYPE svg PUBLIC "-//W3C//DTD SVG 20010904//EN"
 "http://www.w3.org/TR/2001/REC-SVG-20010904/DTD/svg10.dtd">
<svg version="1.0" xmlns="http://www.w3.org/2000/svg"
 width="500.000000pt" height="289.000000pt" viewBox="0 0 500.000000 289.000000"
 preserveAspectRatio="xMidYMid meet">

<g transform="translate(0.000000,289.000000) scale(0.100000,-0.100000)"
fill="#000000" stroke="none">
<path d="M1045 2421 c-157 -26 -283 -89 -398 -200 -117 -112 -184 -239 -217
-408 -16 -79 -8 -266 14 -348 23 -85 88 -214 141 -279 85 -103 229 -194 370
-231 137 -37 349 -30 495 17 106 34 251 113 308 167 l22 22 -2 297 -3 297
-307 3 -308 2 0 -105 0 -105 185 0 c218 0 197 17 193 -165 l-3 -120 -55 -33
c-66 -39 -128 -59 -233 -74 -98 -14 -222 8 -310 55 -292 155 -347 608 -103
851 95 95 194 135 333 136 128 0 242 -37 348 -114 38 -28 52 -33 60 -23 22 24
121 142 133 159 11 14 5 22 -50 61 -139 98 -255 136 -443 142 -66 2 -142 0
-170 -4z"/>
<path d="M673 799 c-20 -6 -39 -21 -48 -39 -40 -78 4 -160 85 -160 62 0 80 13
80 60 0 38 -2 40 -30 40 -16 0 -30 -4 -30 -10 0 -5 9 -10 20 -10 15 0 20 -7
20 -29 0 -48 -69 -58 -114 -16 -34 31 -36 90 -4 130 19 25 26 27 75 23 30 -3
50 -1 46 3 -15 13 -68 17 -100 8z"/>
<path d="M840 705 c0 -63 4 -105 10 -105 6 0 10 42 10 105 0 63 -4 105 -10
105 -6 0 -10 -42 -10 -105z"/>
<path d="M1080 704 c0 -74 3 -105 11 -102 7 2 11 27 11 61 0 31 -1 77 -1 102
-1 25 -5 45 -11 45 -6 0 -10 -42 -10 -106z"/>
<path d="M1400 705 c0 -63 4 -105 10 -105 6 0 10 42 10 105 0 63 -4 105 -10
105 -6 0 -10 -42 -10 -105z"/>
<path d="M1623 803 c-12 -2 -34 -18 -48 -34 -57 -68 -13 -169 72 -169 22 0 48
7 59 16 19 15 19 16 -1 8 -82 -30 -135 1 -135 79 0 63 32 92 95 84 26 -2 43
-1 38 3 -11 12 -54 19 -80 13z"/>
<path d="M1764 705 c0 -60 1 -84 3 -52 2 32 2 81 0 110 -2 29 -3 3 -3 -58z"/>
<path d="M2269 768 c-2 -91 3 -153 12 -162 5 -6 9 31 9 97 0 65 -4 107 -10
107 -5 0 -10 -19 -11 -42z"/>
<path d="M2450 797 c-51 -26 -32 -82 35 -104 33 -11 45 -44 24 -69 -13 -16
-44 -15 -84 1 -18 8 -18 7 -6 -8 22 -27 87 -23 107 8 24 36 14 57 -38 85 -53
28 -65 45 -46 67 9 11 24 14 51 10 22 -3 36 -2 31 3 -18 16 -50 19 -74 7z"/>
<path d="M2764 705 c0 -60 1 -84 3 -52 2 32 2 81 0 110 -2 29 -3 3 -3 -58z"/>
<path d="M3110 800 c0 -5 5 -10 10 -10 6 0 10 5 10 10 0 6 -4 10 -10 10 -5 0
-10 -4 -10 -10z"/>
<path d="M3824 705 c0 -60 1 -84 3 -52 2 32 2 81 0 110 -2 29 -3 3 -3 -58z"/>
<path d="M3011 763 c-1 -13 -7 -23 -13 -23 -10 0 -10 -2 -1 -8 6 -4 13 -34 15
-67 3 -59 4 -60 33 -62 28 -2 28 -1 5 5 -22 7 -25 14 -28 65 l-3 58 48 -3 48
-3 6 -65 6 -65 1 73 2 72 -50 0 c-43 0 -52 3 -60 23 l-9 22 0 -22z"/>
<path d="M958 733 c6 -2 18 -2 25 0 6 3 1 5 -13 5 -14 0 -19 -2 -12 -5z"/>
<path d="M1157 730 c49 -20 40 -110 -12 -121 l-30 -7 32 -1 c37 -1 63 28 63
69 0 35 -27 70 -53 69 l-22 0 22 -9z"/>
<path d="M1305 731 c35 -7 51 -51 19 -51 -17 0 -17 -1 1 -14 10 -7 16 -20 13
-28 -4 -8 -2 -21 3 -29 6 -9 9 7 9 47 0 66 -11 85 -49 83 -24 -1 -24 -2 4 -8z"/>
<path d="M1840 720 c-43 -43 -14 -120 45 -120 44 0 65 22 65 70 0 29 -6 43
-22 54 -31 22 -64 20 -88 -4z m84 -6 c34 -34 13 -104 -32 -104 -38 0 -52 17
-52 60 0 20 5 41 12 48 17 17 54 15 72 -4z"/>
<path d="M2000 689 c0 -65 13 -89 48 -88 l27 1 -25 7 c-23 6 -25 12 -28 69 -4
74 -22 84 -22 11z"/>
<path d="M2100 676 c0 -36 5 -68 10 -71 6 -4 10 20 10 64 0 41 -4 71 -10 71
-6 0 -10 -28 -10 -64z"/>
<path d="M2185 720 c-37 -41 -18 -120 29 -120 19 0 19 1 -4 13 -45 23 -36 111
12 120 22 4 22 4 2 6 -11 0 -29 -8 -39 -19z"/>
<path d="M2600 720 c-26 -26 -26 -81 -2 -103 25 -22 75 -21 95 1 25 28 22 87
-5 106 -31 22 -64 20 -88 -4z m82 -7 c37 -33 16 -103 -31 -103 -35 0 -54 22
-54 60 0 55 46 79 85 43z"/>
<path d="M2831 684 c-1 -66 9 -85 49 -83 20 1 21 2 5 6 -32 8 -39 21 -46 81
l-6 57 -2 -61z"/>
<path d="M2930 670 c0 -40 4 -70 10 -70 6 0 10 30 10 70 0 40 -4 70 -10 70 -6
0 -10 -30 -10 -70z"/>
<path d="M3200 720 c-42 -42 -11 -120 48 -120 33 0 45 8 61 37 13 25 6 66 -14
83 -12 10 -12 6 -2 -19 16 -44 0 -85 -36 -89 -39 -5 -57 14 -57 58 0 41 12 56
50 63 25 4 25 4 -2 6 -16 0 -37 -8 -48 -19z"/>
<path d="M3360 671 c0 -41 4 -71 10 -71 6 0 10 24 10 53 0 29 5 58 10 65 6 6
7 10 4 7 -4 -3 -13 0 -21 6 -11 9 -13 -1 -13 -60z"/>
<path d="M3430 731 c23 -6 25 -12 28 -69 4 -76 22 -83 22 -8 0 60 -17 87 -53
85 -20 -1 -20 -2 3 -8z"/>
<path d="M3535 724 c-22 -22 -15 -36 29 -57 50 -24 46 -52 -6 -52 -20 0 -33
-4 -29 -8 5 -5 24 -7 42 -5 29 2 35 7 37 30 3 23 -2 30 -33 42 -42 18 -45 46
-5 57 23 6 23 7 3 8 -12 1 -29 -6 -38 -15z"/>
<path d="M3890 671 c0 -41 4 -71 10 -71 6 0 10 24 10 53 0 29 5 58 10 65 6 6
7 10 4 7 -4 -3 -13 0 -21 6 -11 9 -13 -1 -13 -60z"/>
<path d="M3960 731 c23 -6 25 -12 28 -69 4 -76 22 -83 22 -8 0 60 -17 87 -53
85 -20 -1 -20 -2 3 -8z"/>
<path d="M4083 725 c-29 -20 -37 -59 -18 -95 13 -24 22 -30 50 -30 18 0 36 3
38 8 3 4 -11 7 -31 7 -30 0 -38 4 -46 26 -15 42 0 77 37 88 21 6 25 10 12 10
-11 1 -30 -6 -42 -14z"/>
<path d="M910 701 c-26 -63 24 -117 87 -95 36 12 50 52 33 93 -7 17 -17 31
-22 31 -5 0 -4 -9 2 -19 15 -28 12 -77 -4 -90 -8 -7 -27 -11 -43 -9 -36 4 -52
45 -36 88 15 39 -1 39 -17 1z"/>
<path d="M1256 654 c-9 -8 -16 -19 -16 -23 0 -13 24 -31 40 -31 12 1 12 2 -2
11 -10 5 -18 16 -18 24 0 8 8 19 18 24 9 6 12 11 5 11 -6 0 -19 -7 -27 -16z"/>
<path d="M4206 623 c-11 -11 -6 -23 9 -23 8 0 15 4 15 9 0 13 -16 22 -24 14z"/>
<path d="M3660 611 c0 -6 5 -13 10 -16 6 -3 10 1 10 9 0 9 -4 16 -10 16 -5 0
-10 -4 -10 -9z"/>
</g>
</svg>
